<mxfile host="app.diagrams.net" modified="2023-07-03T04:59:51.954Z" agent="Mozilla/5.0 (Windows NT 10.0; Win64; x64) AppleWebKit/537.36 (KHTML, like Gecko) Chrome/112.0.0.0 YaBrowser/23.5.3.904 Yowser/2.5 Safari/537.36" etag="ga0lhhq4WeXXGz0BxQpB" version="21.5.2" type="device">
  <diagram name="Страница 1" id="QpGdbZjfan5Bcfcysgag">
    <mxGraphModel dx="1386" dy="767" grid="1" gridSize="10" guides="1" tooltips="1" connect="1" arrows="1" fold="1" page="1" pageScale="1" pageWidth="827" pageHeight="1169" math="0" shadow="0">
      <root>
        <mxCell id="0" />
        <mxCell id="1" parent="0" />
        <mxCell id="FxHAePd0vlwhsdHWrR9y-31" style="edgeStyle=orthogonalEdgeStyle;rounded=0;orthogonalLoop=1;jettySize=auto;html=1;exitX=0.5;exitY=1;exitDx=0;exitDy=0;" edge="1" parent="1" source="FxHAePd0vlwhsdHWrR9y-1" target="FxHAePd0vlwhsdHWrR9y-4">
          <mxGeometry relative="1" as="geometry" />
        </mxCell>
        <mxCell id="FxHAePd0vlwhsdHWrR9y-32" style="edgeStyle=orthogonalEdgeStyle;rounded=0;orthogonalLoop=1;jettySize=auto;html=1;entryX=0.75;entryY=1.067;entryDx=0;entryDy=0;entryPerimeter=0;" edge="1" parent="1" source="FxHAePd0vlwhsdHWrR9y-1" target="FxHAePd0vlwhsdHWrR9y-29">
          <mxGeometry relative="1" as="geometry" />
        </mxCell>
        <mxCell id="FxHAePd0vlwhsdHWrR9y-1" value="Получить ссылки на ячейки. Данные в КЭШе есть?&amp;nbsp;" style="rounded=0;whiteSpace=wrap;html=1;" vertex="1" parent="1">
          <mxGeometry x="300" y="350" width="120" height="60" as="geometry" />
        </mxCell>
        <mxCell id="FxHAePd0vlwhsdHWrR9y-15" style="edgeStyle=orthogonalEdgeStyle;rounded=0;orthogonalLoop=1;jettySize=auto;html=1;" edge="1" parent="1" source="FxHAePd0vlwhsdHWrR9y-2" target="FxHAePd0vlwhsdHWrR9y-7">
          <mxGeometry relative="1" as="geometry" />
        </mxCell>
        <mxCell id="FxHAePd0vlwhsdHWrR9y-16" style="edgeStyle=orthogonalEdgeStyle;rounded=0;orthogonalLoop=1;jettySize=auto;html=1;entryX=0;entryY=0.5;entryDx=0;entryDy=0;" edge="1" parent="1" source="FxHAePd0vlwhsdHWrR9y-2" target="FxHAePd0vlwhsdHWrR9y-6">
          <mxGeometry relative="1" as="geometry" />
        </mxCell>
        <mxCell id="FxHAePd0vlwhsdHWrR9y-2" value="в ячейке число" style="rounded=0;whiteSpace=wrap;html=1;" vertex="1" parent="1">
          <mxGeometry x="40" y="30" width="120" height="60" as="geometry" />
        </mxCell>
        <mxCell id="FxHAePd0vlwhsdHWrR9y-3" value="вернуть соответствующую ошибку" style="rounded=0;whiteSpace=wrap;html=1;" vertex="1" parent="1">
          <mxGeometry x="670" y="300" width="120" height="60" as="geometry" />
        </mxCell>
        <mxCell id="FxHAePd0vlwhsdHWrR9y-4" value="вернуть содержимое КЭШа" style="rounded=0;whiteSpace=wrap;html=1;" vertex="1" parent="1">
          <mxGeometry x="300" y="460" width="120" height="60" as="geometry" />
        </mxCell>
        <mxCell id="FxHAePd0vlwhsdHWrR9y-17" style="edgeStyle=orthogonalEdgeStyle;rounded=0;orthogonalLoop=1;jettySize=auto;html=1;" edge="1" parent="1" source="FxHAePd0vlwhsdHWrR9y-6" target="FxHAePd0vlwhsdHWrR9y-11">
          <mxGeometry relative="1" as="geometry" />
        </mxCell>
        <mxCell id="FxHAePd0vlwhsdHWrR9y-19" style="edgeStyle=orthogonalEdgeStyle;rounded=0;orthogonalLoop=1;jettySize=auto;html=1;exitX=0;exitY=1;exitDx=0;exitDy=0;entryX=1.008;entryY=0.117;entryDx=0;entryDy=0;entryPerimeter=0;" edge="1" parent="1" source="FxHAePd0vlwhsdHWrR9y-6" target="FxHAePd0vlwhsdHWrR9y-7">
          <mxGeometry relative="1" as="geometry" />
        </mxCell>
        <mxCell id="FxHAePd0vlwhsdHWrR9y-6" value="в ячейке текст" style="rounded=0;whiteSpace=wrap;html=1;" vertex="1" parent="1">
          <mxGeometry x="270" y="30" width="120" height="60" as="geometry" />
        </mxCell>
        <mxCell id="FxHAePd0vlwhsdHWrR9y-7" value="вернуть содержимое ячейки" style="rounded=0;whiteSpace=wrap;html=1;" vertex="1" parent="1">
          <mxGeometry x="40" y="140" width="120" height="60" as="geometry" />
        </mxCell>
        <mxCell id="FxHAePd0vlwhsdHWrR9y-28" style="edgeStyle=orthogonalEdgeStyle;rounded=0;orthogonalLoop=1;jettySize=auto;html=1;" edge="1" parent="1" source="FxHAePd0vlwhsdHWrR9y-8">
          <mxGeometry relative="1" as="geometry">
            <mxPoint x="610" y="220" as="targetPoint" />
          </mxGeometry>
        </mxCell>
        <mxCell id="FxHAePd0vlwhsdHWrR9y-30" style="edgeStyle=orthogonalEdgeStyle;rounded=0;orthogonalLoop=1;jettySize=auto;html=1;" edge="1" parent="1" source="FxHAePd0vlwhsdHWrR9y-8" target="FxHAePd0vlwhsdHWrR9y-1">
          <mxGeometry relative="1" as="geometry" />
        </mxCell>
        <mxCell id="FxHAePd0vlwhsdHWrR9y-8" value="есть ли в формуле ссылки на ячейки" style="rounded=0;whiteSpace=wrap;html=1;" vertex="1" parent="1">
          <mxGeometry x="300" y="190" width="150" height="60" as="geometry" />
        </mxCell>
        <mxCell id="FxHAePd0vlwhsdHWrR9y-18" style="edgeStyle=orthogonalEdgeStyle;rounded=0;orthogonalLoop=1;jettySize=auto;html=1;exitX=1;exitY=0.5;exitDx=0;exitDy=0;entryX=0;entryY=0.333;entryDx=0;entryDy=0;entryPerimeter=0;" edge="1" parent="1" source="FxHAePd0vlwhsdHWrR9y-11" target="FxHAePd0vlwhsdHWrR9y-13">
          <mxGeometry relative="1" as="geometry" />
        </mxCell>
        <mxCell id="FxHAePd0vlwhsdHWrR9y-25" style="edgeStyle=orthogonalEdgeStyle;rounded=0;orthogonalLoop=1;jettySize=auto;html=1;entryX=0.75;entryY=0;entryDx=0;entryDy=0;" edge="1" parent="1" source="FxHAePd0vlwhsdHWrR9y-11" target="FxHAePd0vlwhsdHWrR9y-8">
          <mxGeometry relative="1" as="geometry">
            <Array as="points">
              <mxPoint x="413" y="80" />
            </Array>
          </mxGeometry>
        </mxCell>
        <mxCell id="FxHAePd0vlwhsdHWrR9y-11" value="в ячейке формула&amp;nbsp;" style="rounded=0;whiteSpace=wrap;html=1;" vertex="1" parent="1">
          <mxGeometry x="460" y="30" width="120" height="60" as="geometry" />
        </mxCell>
        <mxCell id="FxHAePd0vlwhsdHWrR9y-12" value="вернуть результат, обновить кэш" style="rounded=0;whiteSpace=wrap;html=1;" vertex="1" parent="1">
          <mxGeometry x="530" y="300" width="120" height="60" as="geometry" />
        </mxCell>
        <mxCell id="FxHAePd0vlwhsdHWrR9y-13" value="ошибка вычисления" style="rounded=0;whiteSpace=wrap;html=1;" vertex="1" parent="1">
          <mxGeometry x="660" y="40" width="120" height="60" as="geometry" />
        </mxCell>
        <mxCell id="FxHAePd0vlwhsdHWrR9y-26" style="edgeStyle=orthogonalEdgeStyle;rounded=0;orthogonalLoop=1;jettySize=auto;html=1;exitX=0;exitY=0.5;exitDx=0;exitDy=0;entryX=0.442;entryY=-0.033;entryDx=0;entryDy=0;entryPerimeter=0;" edge="1" parent="1" source="FxHAePd0vlwhsdHWrR9y-14" target="FxHAePd0vlwhsdHWrR9y-12">
          <mxGeometry relative="1" as="geometry">
            <mxPoint x="580" y="290" as="targetPoint" />
          </mxGeometry>
        </mxCell>
        <mxCell id="FxHAePd0vlwhsdHWrR9y-27" style="edgeStyle=orthogonalEdgeStyle;rounded=0;orthogonalLoop=1;jettySize=auto;html=1;" edge="1" parent="1" source="FxHAePd0vlwhsdHWrR9y-14">
          <mxGeometry relative="1" as="geometry">
            <mxPoint x="760" y="300" as="targetPoint" />
          </mxGeometry>
        </mxCell>
        <mxCell id="FxHAePd0vlwhsdHWrR9y-14" value="Рассчитать операнды. Формула валидна?" style="rounded=0;whiteSpace=wrap;html=1;" vertex="1" parent="1">
          <mxGeometry x="610" y="190" width="120" height="60" as="geometry" />
        </mxCell>
        <mxCell id="FxHAePd0vlwhsdHWrR9y-20" value="нет" style="text;html=1;align=center;verticalAlign=middle;resizable=0;points=[];autosize=1;strokeColor=none;fillColor=none;" vertex="1" parent="1">
          <mxGeometry x="180" y="28" width="40" height="30" as="geometry" />
        </mxCell>
        <mxCell id="FxHAePd0vlwhsdHWrR9y-21" value="нет" style="text;html=1;align=center;verticalAlign=middle;resizable=0;points=[];autosize=1;strokeColor=none;fillColor=none;" vertex="1" parent="1">
          <mxGeometry x="400" y="28" width="40" height="30" as="geometry" />
        </mxCell>
        <mxCell id="FxHAePd0vlwhsdHWrR9y-22" value="нет" style="text;html=1;align=center;verticalAlign=middle;resizable=0;points=[];autosize=1;strokeColor=none;fillColor=none;" vertex="1" parent="1">
          <mxGeometry x="590" y="30" width="40" height="30" as="geometry" />
        </mxCell>
        <mxCell id="FxHAePd0vlwhsdHWrR9y-23" value="да" style="text;html=1;align=center;verticalAlign=middle;resizable=0;points=[];autosize=1;strokeColor=none;fillColor=none;" vertex="1" parent="1">
          <mxGeometry x="60" y="98" width="40" height="30" as="geometry" />
        </mxCell>
        <mxCell id="FxHAePd0vlwhsdHWrR9y-24" value="да" style="text;html=1;align=center;verticalAlign=middle;resizable=0;points=[];autosize=1;strokeColor=none;fillColor=none;" vertex="1" parent="1">
          <mxGeometry x="260" y="108" width="40" height="30" as="geometry" />
        </mxCell>
        <mxCell id="FxHAePd0vlwhsdHWrR9y-29" value="нет" style="text;html=1;align=center;verticalAlign=middle;resizable=0;points=[];autosize=1;strokeColor=none;fillColor=none;" vertex="1" parent="1">
          <mxGeometry x="480" y="188" width="40" height="30" as="geometry" />
        </mxCell>
      </root>
    </mxGraphModel>
  </diagram>
</mxfile>
